<?xml version="1.0" encoding="UTF-8" standalone="no"?>
<!DOCTYPE svg PUBLIC "-//W3C//DTD SVG 1.1//EN" "http://www.w3.org/Graphics/SVG/1.1/DTD/svg11.dtd">
<svg width="100%" height="100%" viewBox="0 0 450 450" version="1.1" xmlns="http://www.w3.org/2000/svg" xmlns:xlink="http://www.w3.org/1999/xlink" xml:space="preserve" xmlns:serif="http://www.serif.com/" style="fill-rule:evenodd;clip-rule:evenodd;stroke-linejoin:round;stroke-miterlimit:2;">
    <g transform="matrix(1,0,0,1,-48.0107,-170.976)">
        <g>
            <g>
                <path d="M205.5,555.65C205.49,555.87 205.48,556.08 205.48,556.3C206.66,556.41 207.86,556.44 209.03,556.66C215,557.77 220.94,559.04 226.95,559.93C227.78,560.05 230,562.03 230.29,559.02C230.54,559.07 230.79,559.11 231.04,559.19C233.61,560.04 236.13,561.1 238.75,561.69C242.06,562.43 245.48,562.69 248.81,563.38C249.55,563.53 250.09,564.64 250.72,565.3C249.94,565.99 249.24,566.81 248.36,567.33C247.54,567.81 246.48,567.86 245.62,568.28C242.78,569.67 240.05,571.34 237.13,572.54C234.55,573.6 231.75,574.08 229.1,574.97C225.7,576.12 222.37,577.49 218.97,578.63C218.24,578.87 217.11,578.16 216.49,578.49C215.83,578.85 215.03,580.14 215.24,580.63C215.55,581.37 216.66,582.19 217.46,582.23C219.64,582.32 221.9,582.28 224.03,581.83C228.74,580.83 233.38,579.47 238.07,578.4C241.28,577.67 244.57,577.25 247.79,576.54C252.85,575.42 257.88,574.13 262.94,573C269.37,571.57 275.8,570.1 282.29,568.96C284.28,568.61 287.06,568.51 288.4,569.61C291.92,572.5 294.86,576.11 298.02,579.43C301.37,582.94 304.64,586.53 308.1,589.93C309.5,591.31 311.28,592.33 312.99,593.36C313.34,593.57 314.15,593.19 314.65,592.9C314.84,592.79 314.88,592.13 314.75,591.82C313.94,589.93 313.1,588.06 312.2,586.21C310.04,581.78 307.86,577.35 305.65,572.94C303.02,567.69 299.43,562.81 299.21,556.62C299.08,552.94 296.3,548.71 301.3,546.03C301.41,545.97 301.51,545.83 301.55,545.71C303.56,539.15 309.53,535.35 312.81,529.61C315.43,525.02 319.05,521 322.24,516.75C323.36,515.26 324.3,513.43 325.78,512.45C327.75,511.15 330.11,510.31 332.41,509.65C336.08,508.6 336.79,505.23 338.42,502.57C338.6,502.27 338.53,501.76 338.44,501.37C337.83,498.76 337.47,496.04 336.47,493.58C335.47,491.1 334.13,488.6 332.37,486.62C331.01,485.09 330.23,483.84 330.58,481.8C330.81,480.47 330.62,479.07 330.69,477.7C330.71,477.24 330.82,476.6 331.13,476.4C331.43,476.2 332.16,476.3 332.48,476.55C333.32,477.2 334.23,477.89 334.78,478.78C336.92,482.23 339.69,484.61 343.48,486.4C346.59,487.87 349.94,489.8 351.47,493.46C352.13,495.05 352.98,496.6 353.97,498C355.37,499.97 355.13,501.85 354.17,503.82C353.96,504.26 353.79,504.73 353.59,505.17C352.54,507.52 351.65,509.97 350.38,512.2C349.29,514.12 349.92,517.71 351.58,519.25C354.58,522.04 357.43,524.99 358.18,529.34C358.84,533.13 359.9,536.85 360.44,540.65C360.8,543.2 360.64,545.85 360.52,548.44C360.5,548.8 359.13,549.53 358.73,549.34C357.67,548.84 356.51,548.11 355.9,547.15C351.74,540.61 345.51,536.17 339.85,531.16C336.13,527.86 332.12,524.89 328.2,521.81C327.79,521.49 327.16,521.44 326.63,521.27C326.53,521.95 326.14,522.77 326.38,523.29C327.27,525.19 328.38,526.98 329.39,528.83C332.12,533.81 334.86,538.78 337.58,543.77C339.12,546.61 337.79,549.52 334.61,550.1C331.4,550.69 328.16,551.13 324.93,551.66C320.18,552.44 315.42,553.15 310.69,554.07C309.65,554.27 308.77,555.28 307.82,555.92C308.82,556.49 309.82,557.07 310.83,557.64C310.9,557.68 311.01,557.66 311.1,557.66C317.68,558.04 324.27,558.35 330.84,558.84C336.27,559.24 341.69,559.85 347.12,560.35C348.59,560.49 350.11,560.81 351.55,560.61C357.09,559.82 361.61,561.71 365.37,565.62C366.92,567.23 368.33,568.99 369.6,570.83C372.24,574.68 374.61,578.72 377.34,582.51C380.62,587.06 384.17,591.42 387.58,595.88C388.87,597.56 389.99,599.38 391.36,600.99C393.15,603.09 395.08,605.08 397.02,607.05C397.32,607.36 397.99,607.31 398.49,607.43C398.57,606.99 398.84,606.49 398.71,606.12C397.17,601.77 395.6,597.43 393.98,593.11C393.13,590.85 392.05,588.68 391.29,586.4C390.34,583.51 389.98,580.37 388.71,577.65C386.23,572.32 384.93,566.84 384.42,560.99C383.54,550.8 381.21,540.93 376.8,531.6C375.37,528.58 373.73,525.58 374.57,521.87C375.29,518.66 375.6,515.33 375.76,512.04C375.88,509.65 375.46,507.23 375.28,504.82C375.02,501.24 375.32,497.49 371.73,495.05C371.22,494.7 371.3,493.47 371.11,492.65C371.92,492.53 372.85,492.08 373.51,492.34C376.09,493.35 378.62,494.49 381.09,495.75C384.6,497.54 388.1,499.37 391.48,501.39C392.43,501.95 393.08,503.15 393.65,504.18C394.19,505.14 394.15,506.54 394.86,507.27C398.19,510.69 401.61,514.02 405.16,517.21C406.24,518.18 407.84,518.57 409.18,519.25C410.87,520.11 412.82,520.69 414.17,521.93C417.49,524.98 420.45,528.43 423.72,531.54C426.6,534.28 430.01,535.63 434.1,534.61C436.91,533.91 439.82,533.59 442.56,532.69C445.97,531.57 449.44,530.38 452.51,528.57C455.52,526.8 456.74,522.05 455.78,519.48C454.5,516.04 453.38,512.54 452.23,509.05C450.88,504.96 449.72,500.8 448.23,496.77C446.44,491.94 444.42,487.19 442.42,482.44C440.17,477.09 437.91,471.73 435.5,466.45C433.05,461.1 431.24,455.77 431.99,449.65C432.52,445.32 432.26,440.82 431.76,436.46C431.43,433.58 430.04,430.82 429.17,427.99C427.64,422.99 426.19,417.97 424.61,412.99C423.5,409.49 422.27,406.03 420.96,402.6C420.5,401.39 419.91,399.93 418.92,399.29C417.29,398.25 415.21,397.94 413.47,397.04C411.18,395.84 408.94,394.49 406.88,392.94C406.3,392.51 406.41,391.16 406.2,390.23C407.13,390.05 408.21,389.46 408.97,389.75C411.82,390.83 414.57,392.2 417.35,393.45C417.48,393.51 417.55,393.53 417.55,393.53C417.58,393.47 404.54,386.26 403.27,387.96C402.46,389.04 406.54,393.65 410.04,396.55C414.1,399.92 418.18,401.67 420.96,402.61C419.48,398.67 418.65,395.54 418.17,393.12C418.15,393.03 418.16,393.02 418.13,392.94C417.29,390.33 416.52,387.69 415.57,385.12C414.14,381.24 412.57,377.41 411.07,373.56C409.38,369.22 407.75,364.85 406.02,360.53C404.79,357.47 403.48,354.45 402.11,351.45C401.51,350.13 400.82,348.8 399.9,347.71C399.02,346.65 397.67,346 396.74,344.97C395.18,343.26 393.89,341.28 392.29,339.62C390.25,337.5 388.05,335.54 385.84,333.6C382.06,330.27 378.22,327.02 374.4,323.73C373.16,322.66 371.92,321.6 370.69,320.52C369.29,319.28 367.98,317.92 366.5,316.81C363.08,314.24 359.55,311.8 356.1,309.27C353.68,307.5 351.39,305.55 348.9,303.89C339.68,297.74 330.36,291.73 321.18,285.52C320.13,284.81 319.18,283.22 319.09,281.97C318.9,279.27 319.14,276.5 319.49,273.8C319.9,270.62 320.43,267.42 321.25,264.32C322.6,259.21 324.46,254.25 324.44,248.84C324.42,242 322.05,235.69 320.31,229.23C319.01,224.4 317.68,219.59 316.34,214.77C316.07,213.81 315.92,212.69 315.31,211.99C313.87,210.35 312.08,209 310.61,207.39C306.39,202.78 302.32,198.02 298.06,193.45C295.33,190.52 292.96,187.06 288.59,186.18C287.02,185.86 285.36,184.48 284.02,184.8C279.78,185.81 275.62,187.23 271.54,188.78C265.32,191.15 259.14,193.64 253.03,196.31C247.11,198.9 240.18,199.43 235.34,204.19C231.73,207.74 228.44,211.67 225.4,215.73C223.7,217.99 222.58,220.77 221.55,223.45C220.18,227.03 219.21,230.77 217.95,234.39C216.64,238.16 215.62,242.13 213.66,245.55C212.25,248 209.62,249.83 207.32,251.67C204.05,254.29 200.52,256.58 197.21,259.15C192.26,262.99 187.41,266.95 182.52,270.86C179.26,273.47 175.96,276.02 172.79,278.72C170.31,280.83 167.97,283.1 165.6,285.33C163.56,287.24 161.49,289.12 159.56,291.13C158.06,292.69 156.91,294.59 155.36,296.09C152.14,299.19 148.72,302.08 145.46,305.14C142.39,308.02 139.43,311.03 136.39,313.95C134.48,315.79 132.48,317.54 130.56,319.37C129.02,320.83 127.54,322.36 126.02,323.84C124.19,325.61 122.21,327.25 120.52,329.15C118.09,331.89 115.8,334.76 113.56,337.66C110.23,341.99 106.95,346.35 103.74,350.77C101.35,354.06 99.19,357.51 96.78,360.77C94.78,363.47 92.54,365.99 90.44,368.6C90.19,368.91 90.09,369.33 89.92,369.71C90.38,369.64 90.95,369.71 91.28,369.46C94.94,366.71 98.55,363.88 102.2,361.12C105.76,358.43 109.35,355.77 112.95,353.14C118.04,349.42 123.19,345.77 128.25,342.01C133.66,337.98 138.94,333.76 144.4,329.8C147.35,327.66 150.62,325.99 153.63,323.93C158.16,320.82 162.54,317.5 167.05,314.37C171.13,311.53 175.27,308.78 179.44,306.07C184.19,302.97 189.04,300.03 193.74,296.86C195.89,295.41 197.72,293.48 199.82,291.93C202.61,289.87 205.53,287.99 208.36,285.99C210.4,284.55 212.32,282.94 214.4,281.57C217.48,279.54 220.65,277.62 223.81,275.7C226.49,274.07 229.05,272.11 231.94,271.01C234.86,269.89 238.08,270.06 240.74,272.19C241.28,272.62 241.7,273.48 241.74,274.17C241.76,274.55 240.92,275.02 240.42,275.4C239.41,276.16 238.16,276.7 237.37,277.64C232.84,283.04 228.5,288.6 223.95,293.97C220.43,298.12 216.63,302.03 213.08,306.16C210.67,308.96 208.01,311.68 207.54,315.65C207.29,317.79 206.93,319.92 206.77,322.06C206.18,329.57 205.38,337.08 205.18,344.61C205.04,349.95 205.8,355.32 206.06,360.68C206.26,364.79 206.17,368.92 206.43,373.03C206.61,375.85 206.8,378.77 207.68,381.41C208.86,384.92 211.19,388.06 212.19,391.59C214.64,400.21 219.61,407.36 224.7,414.45C227.36,418.16 230.48,421.59 233.7,424.85C235.72,426.9 238.23,428.51 240.66,430.1C246.42,433.84 252.18,437.57 258.1,441.04C261.09,442.79 264.42,443.96 267.59,445.41C269.92,446.47 272.14,448.12 274.57,448.51C279.78,449.35 284.14,451.88 288.53,454.42C291.36,456.06 294.14,457.85 296.74,459.82C298.21,460.93 299.59,462.4 300.47,464.01C302.08,466.94 303,470.28 304.74,473.12C307.44,477.54 310.39,481.78 310.92,487.13C311.25,490.4 313.41,493.64 311.44,496.94C310.2,499.02 308.79,501.08 307.09,502.78C302.6,507.24 300.26,512.67 298.55,518.67C297.1,523.76 294.71,528.59 292.75,533.55C292.59,533.96 292.62,534.44 292.45,534.84C292.1,535.64 291.87,536.71 291.23,537.15C286.95,540.12 282.35,542.57 277.33,543.93C272.03,545.36 266.62,546.46 261.21,547.44C255.94,548.4 250.59,548.96 245.3,549.83C240.68,550.59 236.09,551.58 231.47,552.36C228.75,552.82 225.98,553.03 223.24,553.41C221.21,553.69 219.19,554.05 217.17,554.43C214.98,554.84 212.81,555.43 210.61,555.71C208.89,555.81 207.18,555.65 205.5,555.65Z" style="fill:white;fill-rule:nonzero;"/>
            </g>
            <path d="M210.27,555.48C212.48,555.2 214.64,554.61 216.83,554.2C218.85,553.82 220.87,553.47 222.9,553.18C225.64,552.8 228.4,552.59 231.13,552.13C235.75,551.35 240.33,550.35 244.96,549.6C250.25,548.73 255.59,548.17 260.87,547.21C266.28,546.23 271.69,545.13 276.99,543.7C282.01,542.34 286.62,539.89 290.89,536.92C291.53,536.48 291.76,535.41 292.11,534.61C292.28,534.21 292.25,533.72 292.41,533.32C294.37,528.37 296.76,523.54 298.21,518.44C299.92,512.44 302.26,507.02 306.75,502.55C308.45,500.85 309.87,498.79 311.1,496.71C313.06,493.41 310.9,490.17 310.58,486.9C310.05,481.55 307.1,477.31 304.4,472.89C302.67,470.04 301.74,466.71 300.13,463.78C299.25,462.18 297.87,460.71 296.4,459.59C293.79,457.61 291.02,455.83 288.19,454.19C283.8,451.65 279.43,449.12 274.23,448.28C271.8,447.89 269.58,446.24 267.25,445.18C264.08,443.73 260.75,442.56 257.76,440.81C251.84,437.34 246.08,433.61 240.32,429.87C237.88,428.29 235.38,426.67 233.36,424.62C230.14,421.36 227.02,417.93 224.36,414.22C219.27,407.13 214.3,399.98 211.85,391.36C210.85,387.83 208.52,384.68 207.34,381.18C206.45,378.54 206.27,375.62 206.09,372.8C205.82,368.69 205.91,364.57 205.72,360.45C205.47,355.09 204.71,349.73 204.84,344.38C205.04,336.86 205.84,329.35 206.43,321.83C206.6,319.69 206.95,317.56 207.2,315.42C207.67,311.45 210.33,308.73 212.74,305.93C216.29,301.81 220.09,297.89 223.61,293.74C228.16,288.36 232.51,282.81 237.03,277.41C237.82,276.47 239.07,275.93 240.08,275.17C240.58,274.8 241.43,274.33 241.4,273.94C241.36,273.25 240.94,272.39 240.4,271.96C237.74,269.83 234.52,269.66 231.6,270.78C228.71,271.88 226.15,273.84 223.47,275.47C220.31,277.39 217.15,279.31 214.06,281.34C211.98,282.71 210.05,284.32 208.02,285.76C205.19,287.76 202.27,289.64 199.48,291.7C197.38,293.25 195.55,295.17 193.4,296.63C188.7,299.8 183.85,302.74 179.1,305.84C174.94,308.56 170.79,311.31 166.71,314.14C162.2,317.28 157.82,320.59 153.29,323.7C150.29,325.76 133.33,337.76 127.92,341.78C122.86,345.55 117.71,349.19 112.62,352.91C109.02,355.55 105.43,358.2 101.87,360.89C98.22,363.65 94.61,366.48 90.95,369.23C90.62,369.48 89.87,368.68 90.11,368.37C92.22,365.75 94.46,363.23 96.45,360.54C98.87,357.28 101.03,353.82 103.41,350.54C106.62,346.12 109.9,341.75 113.23,337.43C115.47,334.53 117.75,331.66 120.19,328.92C121.88,327.02 157.75,292.46 159.25,290.9C161.18,288.89 163.25,287.01 165.29,285.1C167.67,282.87 170,280.6 172.48,278.49C175.66,275.79 178.96,273.23 182.21,270.63C187.1,266.71 191.96,262.76 196.9,258.92C200.21,256.35 203.74,254.06 207.01,251.44C209.31,249.6 211.94,247.77 213.35,245.32C215.31,241.91 216.33,237.93 217.64,234.16C218.9,230.53 219.87,226.8 221.24,223.22C222.27,220.54 223.38,217.76 225.09,215.5C228.14,211.45 231.42,207.51 235.03,203.96C239.87,199.21 246.8,198.67 252.72,196.08C258.82,193.42 265,190.92 271.23,188.55C275.31,187 279.47,185.58 283.71,184.57C285.04,184.25 286.71,185.63 288.28,185.95C292.65,186.83 295.02,190.29 297.75,193.22C302.01,197.79 306.08,202.55 310.3,207.16C311.78,208.78 313.56,210.12 315,211.76C315.72,212.57 315.8,213.99 316.18,215.02C317.29,218.03 318.28,221.08 318.88,224.24C320.44,232.41 324.09,240.09 324.12,248.61C324.14,254.03 322.28,258.99 320.93,264.09C320.11,267.19 319.58,270.39 319.17,273.57C318.82,276.27 318.58,279.04 318.77,281.74C318.86,282.99 319.81,284.58 320.86,285.29C330.04,291.5 339.36,297.51 348.58,303.66C351.07,305.32 353.36,307.27 355.78,309.04C359.24,311.57 362.76,314.01 366.18,316.58C367.67,317.7 368.97,319.06 370.37,320.29C371.6,321.37 372.84,322.43 374.08,323.5C377.9,326.79 381.74,330.04 385.52,333.37C387.73,335.31 389.93,337.28 391.97,339.39C393.58,341.06 394.86,343.03 396.42,344.74C397.35,345.76 398.7,346.42 399.58,347.48C400.28,348.31 400.84,349.28 401.33,350.27C402.6,352.82 403.71,355.45 404.79,358.09C406.87,363.13 408.77,368.25 410.74,373.33C412.24,377.19 413.8,381.02 415.24,384.89C416.19,387.46 416.97,390.1 417.8,392.71C417.87,392.94 417.83,393.21 417.84,393.46C417.57,393.38 417.28,393.33 417.02,393.21C414.23,391.96 411.49,390.59 408.64,389.51C407.97,389.26 407.05,389.68 406.2,389.91C406.02,389.96 405.91,390.13 405.93,390.32C406.06,391.21 406.04,392.32 406.55,392.7C408.61,394.25 410.85,395.61 413.14,396.8C414.88,397.71 416.96,398.01 418.59,399.05C419.58,399.69 420.17,401.15 420.63,402.36C421.94,405.79 423.16,409.26 424.28,412.75C425.87,417.73 427.31,422.76 428.84,427.75C429.71,430.58 431.1,433.34 431.43,436.22C431.92,440.58 432.19,445.08 431.66,449.41C430.94,455.3 432.59,460.44 434.89,465.58C436.85,469.96 438.82,474.33 440.66,478.76C443.11,484.66 445.68,490.53 447.9,496.52C449.4,500.55 450.56,504.71 451.9,508.8C453.05,512.29 454.17,515.79 455.45,519.23C456.41,521.8 455.18,526.55 452.18,528.32C449.11,530.12 445.64,531.32 442.23,532.44C439.5,533.34 436.58,533.66 433.77,534.36C429.68,535.38 426.27,534.03 423.39,531.29C420.12,528.18 417.17,524.73 413.84,521.68C412.49,520.44 410.54,519.86 408.85,519C407.5,518.32 405.91,517.93 404.83,516.96C401.28,513.77 397.86,510.44 394.53,507.02C393.82,506.29 393.85,504.89 393.32,503.93C392.75,502.9 392.1,501.71 391.15,501.14C387.77,499.13 384.27,497.29 380.76,495.5C378.29,494.24 375.76,493.1 373.18,492.09C372.52,491.83 371.59,492.28 370.78,492.4C370.97,493.22 370.89,494.45 371.4,494.8C374.99,497.24 374.69,500.99 374.95,504.57C375.13,506.98 375.55,509.4 375.43,511.79C375.27,515.08 374.96,518.41 374.24,521.62C373.4,525.33 375.04,528.33 376.47,531.35C381.07,541.08 383.4,551.39 384.2,562.04C384.6,567.44 386.24,572.64 388.46,577.57C389.67,580.26 390.03,583.32 390.96,586.15C391.71,588.43 392.8,590.61 393.65,592.86C395.27,597.18 396.84,601.52 398.38,605.87C398.51,606.23 398.24,606.74 398.16,607.18C397.66,607.06 396.99,607.11 396.69,606.8C394.75,604.83 392.82,602.85 391.03,600.74C389.66,599.13 388.54,597.31 387.25,595.63C383.84,591.17 380.29,586.81 377.01,582.26C374.28,578.47 371.92,574.43 369.27,570.58C368.01,568.74 366.59,566.98 365.04,565.37C361.28,561.46 356.76,559.56 351.22,560.36C349.79,560.57 348.27,560.24 346.79,560.1C341.36,559.6 335.95,558.99 330.51,558.59C323.85,558.1 317.18,557.79 310.52,557.4C310.51,557.4 310.51,557.4 310.5,557.39C309.49,556.82 308.49,556.25 307.49,555.67C308.44,555.03 309.32,554.02 310.36,553.82C315.08,552.89 319.84,552.18 324.6,551.41C327.83,550.88 331.07,550.44 334.28,549.85C337.47,549.26 338.81,546.39 337.26,543.54C334.54,538.54 331.8,533.56 329.06,528.57C328.05,526.73 326.94,524.93 326.05,523.03C325.81,522.51 326.2,521.69 326.3,521.01C326.83,521.18 327.46,521.23 327.87,521.55C331.78,524.63 335.79,527.6 339.52,530.9C345.17,535.91 351.4,540.35 355.57,546.89C356.18,547.85 357.34,548.57 358.4,549.08C358.79,549.27 360.17,548.54 360.19,548.18C360.32,545.59 360.48,542.94 360.11,540.39C359.57,536.59 358.51,532.86 357.85,529.08C357.1,524.73 354.25,521.78 351.25,518.99C349.59,517.45 348.96,513.85 350.05,511.94C351.32,509.71 352.21,507.26 353.26,504.91C353.46,504.46 353.62,504 353.84,503.56C354.78,501.62 355.03,499.78 353.72,497.85C352.76,496.44 351.84,495 351.22,493.42C349.73,489.61 346.3,487.64 343.14,486.13C339.35,484.33 336.57,481.95 334.44,478.51C333.89,477.63 332.98,476.94 332.14,476.28C331.82,476.03 331.1,475.93 330.79,476.13C330.49,476.33 330.38,476.97 330.35,477.43C330.28,478.8 330.47,480.2 330.24,481.53C329.89,483.57 330.66,484.82 332.03,486.35C333.79,488.33 335.13,490.82 336.13,493.31C337.12,495.77 337.49,498.49 338.1,501.1C338.19,501.48 338.26,502 338.08,502.3C336.45,504.96 335.74,508.33 332.07,509.38C329.77,510.04 327.41,510.88 325.44,512.18C323.96,513.16 323.02,514.98 321.9,516.48C318.7,520.73 315.09,524.76 312.47,529.34C309.18,535.09 303.21,538.89 301.2,545.47C301.16,545.59 301.07,545.7 300.96,545.76C295.96,548.44 298.74,552.67 298.87,556.35C299.09,562.54 302.69,567.42 305.31,572.67C307.51,577.08 309.7,581.51 311.86,585.94C312.76,587.79 313.6,589.66 314.41,591.55C314.54,591.86 314.5,592.52 314.31,592.63C313.81,592.92 313,593.3 312.65,593.09C310.95,592.06 309.17,591.04 307.76,589.66C304.3,586.26 301.03,582.67 297.68,579.16C294.51,575.84 291.58,572.23 288.06,569.34C286.72,568.24 283.94,568.34 281.95,568.69C275.46,569.83 269.03,571.3 262.6,572.73C257.54,573.85 252.51,575.15 247.45,576.27C244.23,576.98 240.94,577.39 237.73,578.13C233.03,579.2 228.4,580.56 223.69,581.56C221.56,582.01 219.3,582.06 217.12,581.96C216.32,581.93 215.21,581.1 214.9,580.36C214.7,579.87 217.89,578.6 218.63,578.36C222.04,577.23 225.36,575.86 228.76,574.7C231.41,573.8 234.21,573.32 236.79,572.27C239.71,571.07 242.44,569.41 245.28,568.01C246.14,567.59 247.2,567.54 248.02,567.06C248.9,566.54 249.6,565.72 250.38,565.03C249.75,564.36 249.21,563.26 248.47,563.11C245.14,562.42 241.73,562.16 238.41,561.42C235.79,560.83 227.44,559.79 226.61,559.67C220.61,558.78 214.66,557.51 208.69,556.4C207.58,556.31 208.61,555.69 210.27,555.48ZM236.37,365.16C236.54,365.16 236.88,355.8 236.89,351.14C236.89,350.66 236.97,349.88 237.06,349.4C237.99,344.71 238.85,340.01 239.9,335.35C240.99,330.52 241.83,325.56 243.61,320.98C244.87,317.75 247.46,315.01 249.56,312.13C251.63,309.3 253.67,306.42 256.03,303.83C257.6,302.1 259.58,300.75 261.45,299.3C262.05,298.83 262.7,298.42 263.35,298.03C266.18,296.34 268.9,294.45 271.81,292.91C274.93,291.26 278.12,289.73 281.4,288.45C282.95,287.85 283.92,287.38 284.02,285.49C284.22,281.57 284.62,277.66 285.08,273.76C285.38,271.23 287.61,268.91 285.89,266.15C285.83,266.05 285.88,265.88 285.9,265.75C286.44,262.12 286.42,258.58 284.01,255.51C283.62,255.01 283.03,254.67 282.52,254.27C282.48,254.24 282.42,254.25 282.39,254.29C282.06,254.74 281.73,255.18 281.41,255.64C280.71,256.66 280.25,258.14 279.28,258.63C276.79,259.88 274.02,260.57 271.48,261.74C270.72,262.09 270.32,263.24 269.77,264.05C269.75,264.08 269.76,264.12 269.79,264.13C270.52,264.52 271.26,265.21 271.99,265.2C273.9,265.16 275.81,264.75 277.72,264.61C278.11,264.58 278.54,265.09 278.96,265.35C278.67,265.75 278.45,266.39 278.08,266.5C276.97,266.81 275.78,266.81 274.66,267.09C270.75,268.05 266.83,268.96 263,270.18C262.16,270.45 261.66,271.89 261.11,272.84C261.05,272.94 261.62,273.52 261.98,273.73C262.44,274 262.98,274.14 263.49,274.33C263.17,274.81 262.79,275.27 262.54,275.78C261.95,277 261.42,278.25 260.86,279.48C261.9,279.74 262.95,280.01 264,280.25C264.26,280.31 264.55,280.21 264.81,280.27C265.25,280.37 265.67,280.54 266.1,280.69C265.73,280.94 265.39,281.28 264.98,281.42C263.24,281.99 261.5,282.57 259.72,283.03C256.72,283.81 253.73,284.66 250.69,285.17C248.47,285.54 245.97,284.9 243.95,285.65C241.83,286.44 240.11,288.33 238.25,289.77C236.22,291.34 234.04,292.78 232.25,294.59C229.84,297.02 227.7,299.71 225.5,302.34C223.69,304.51 221.6,306.56 220.3,309.01C218.25,312.86 216.76,317 215.04,321.02C213.78,323.97 212.71,326.82 213.05,330.28C213.64,336.2 213.62,342.19 213.71,348.16C213.79,352.75 213.49,357.34 213.66,361.93C213.84,366.76 214.22,371.61 214.81,376.41C215.16,379.26 216,382.06 216.81,384.83C217.52,387.24 218.51,389.57 219.34,391.95C219.73,393.06 219.91,394.25 220.4,395.3C221.01,396.62 221.91,397.8 222.56,399.1C223.48,400.93 225.34,401.84 226.13,400.67C227.77,398.24 228.63,395.59 227.89,392.57C226.74,387.88 223.79,383.7 225.35,378.26C227.16,371.93 228.01,365.32 229.29,358.83C229.35,358.53 229.59,358.26 229.74,357.98C229.89,358.3 230.14,358.61 230.17,358.93C230.48,362.23 230.73,365.53 231.06,368.82C231.65,374.73 232.83,380.65 232.74,386.55C232.63,393.4 233.78,400.01 234.81,406.69C234.83,406.84 234.88,406.99 234.96,407.13C237.3,411.38 239.53,415.7 242.06,419.83C242.56,420.65 244.18,420.79 245.28,421.24C245.51,420.63 246.06,419.94 245.92,419.43C245.45,417.75 244.83,416.11 244.1,414.52C242.68,411.4 241.11,408.35 239.67,405.24C236.27,397.91 237.22,389.92 236.47,382.22C235.92,376.58 236.37,370.85 236.37,365.16ZM298.61,283.51C300.93,283.51 301.91,283.06 302.28,280.81C302.89,277.1 303.21,273.32 303.44,269.56C303.81,263.53 304.01,257.49 304.29,251.45C304.47,247.66 304.49,243.85 304.91,240.09C305.2,237.52 304.9,235.34 303.19,233.34C300.67,230.39 298.63,227.19 295.05,225.04C289.37,221.64 282.71,222.61 278.58,227.46C276.75,229.6 276.23,232.44 273.94,234.54C268.62,239.42 262.91,239.44 256.48,237.8C254.09,237.19 251.2,236.33 248.92,238.4C246.07,240.98 242.74,242.52 239.27,244.13C234.66,246.27 230.62,249.66 226.3,252.43C223.86,254 222.03,256.74 218.48,256.23C215.78,255.85 213.13,256.22 210.91,258.1C210.2,258.7 209.45,259.26 208.67,259.76C206.46,261.17 204.18,262.48 202.01,263.96C199.86,265.42 197.81,267.03 195.72,268.57C193.88,269.94 191.93,271.19 190.22,272.71C184.6,277.67 179.09,282.75 173.48,287.72C169.71,291.06 165.8,294.25 162,297.56C157.37,301.58 152.7,305.54 148.22,309.72C142.18,315.33 136.2,321.01 130.4,326.87C126.17,331.15 122.16,335.66 118.28,340.27C115.88,343.12 113.91,346.33 111.78,349.4C111.59,349.68 111.64,350.13 111.58,350.5C111.98,350.36 112.44,350.31 112.77,350.07C116.18,347.59 119.57,345.08 122.96,342.56C129.18,337.94 135.42,333.34 141.62,328.69C146.76,324.83 151.89,320.98 156.93,316.99C161.52,313.36 165.94,309.51 170.52,305.86C175.04,302.26 179.69,298.82 184.25,295.27C188.91,291.64 193.48,287.9 198.19,284.34C200.64,282.48 203.32,280.92 205.87,279.19C209.46,276.74 212.98,274.21 216.6,271.8C220.63,269.11 224.59,266.25 228.85,263.96C233.13,261.66 236.74,257.73 242.22,257.97C243.11,258.01 244.08,257.34 244.93,256.85C249.17,254.4 253.26,251.64 257.64,249.5C260.47,248.12 263.74,247.65 266.79,246.69C270.66,245.47 274.5,244.18 278.35,242.9C281.51,241.85 284.61,240.46 287.85,239.86C289.29,239.59 292.11,240.57 292.43,241.57C293.59,245.21 294.27,249.07 294.51,252.89C294.73,256.27 294.08,259.7 293.9,263.12C293.66,267.59 293.49,272.07 293.3,276.55C293.15,279.59 295.31,283.93 298.61,283.51ZM268,209.49C269.25,209.73 270.83,210.19 272.44,210.3C274.09,210.41 275.81,210.41 277.4,210.02C279.2,209.59 280.84,208.21 282.62,208.07C285.61,207.83 288.66,208.17 291.68,208.42C292.66,208.5 293.63,208.76 294.51,209.21C297.97,210.97 301.34,212.9 304.82,214.64C305.25,214.85 306.09,214.33 306.68,214.04C306.87,213.95 307.06,213.38 306.96,213.25C305.67,211.5 304.43,209.7 302.96,208.1C301.52,206.53 299.72,205.28 298.27,203.71C295.2,200.41 291.82,197.62 287.52,196.08C285.53,195.37 283.64,194.18 281.61,193.86C279.55,193.53 277.32,194.22 275.19,194.36C274.54,194.4 273.9,194.51 273.26,194.62C272.41,194.77 271.52,194.81 270.7,195.09C270.03,195.32 269.47,195.84 268.81,196.08C265.48,197.29 262.09,198.35 258.82,199.67C256.8,200.49 254.93,201.68 253.01,202.73C251.69,203.45 250.19,204.01 249.16,205.03C246.76,207.42 244.44,209.92 242.38,212.6C239.29,216.63 236.37,220.8 233.53,225.01C231.13,228.58 228.91,232.28 226.72,235.98C226.42,236.48 226.34,237.17 226.34,237.83C226.34,238.13 226.56,238.38 226.86,238.41C227.4,238.46 227.96,238.48 228.25,238.24C230.22,236.56 232.24,234.88 233.9,232.9C235.31,231.22 236.89,230.54 238.98,230.06C244.03,228.91 248.2,226.3 250.59,221.44C251.42,219.76 251.94,217.87 253.02,216.38C256.58,211.51 262.1,210.48 268,209.49ZM332.12,467.68C331.82,466.65 331.67,465.7 331.27,464.87C330.41,463.11 329.44,461.41 328.47,459.7C325.83,455.05 323.34,450.31 320.47,445.81C318.58,442.84 316.05,440.28 313.96,437.43C311.38,433.91 309.01,430.23 306.43,426.7C303.73,423 300.79,419.44 300.05,414.73C299.62,411.99 299.39,409.23 299.14,406.47C298.89,403.73 298.69,400.98 298.51,398.23C298.24,394.28 298,390.32 297.73,386.37C297.56,383.83 297.74,381.18 297.08,378.76C295.74,373.92 294.11,369.13 292.24,364.46C290.61,360.41 288.56,356.52 286.56,352.63C285.15,349.89 283.52,347.26 281.99,344.59C279.71,340.6 277.48,336.58 275.11,332.65C274.65,331.88 273.58,330.96 272.81,330.99C269.17,331.1 268.61,332.09 269.94,335.38C270.16,335.92 270.29,336.49 270.57,337C272.13,339.87 273.86,342.65 275.26,345.59C278.54,352.5 281.77,359.44 284.82,366.45C286.82,371.06 289.25,375.68 290.08,380.54C291.27,387.56 291,394.81 291.69,401.92C292.14,406.52 293.01,411.11 294.02,415.62C295.86,423.85 301.43,429.86 306.6,436.11C311.17,441.64 315.84,447.12 320.03,452.93C323.53,457.78 326.4,463.09 329.6,468.16C329.99,468.77 330.72,469.16 331.3,469.66C331.57,469.01 331.85,468.35 332.12,467.68ZM398.07,412.24C398,412.32 397.93,412.39 397.86,412.47C397.65,412.18 397.45,411.89 397.24,411.6C394.16,407.34 391.27,402.93 387.96,398.86C384.93,395.13 381.56,391.65 378.14,388.25C374.7,384.82 371.13,381.51 367.43,378.37C362.78,374.42 357.86,370.84 352.07,368.67C349.06,367.54 346.05,366.42 343.05,365.25C339.11,363.72 335.18,362.15 331.23,360.62C331.02,360.54 330.74,360.67 330.49,360.7C330.58,360.88 330.63,361.12 330.77,361.23C334.8,364.18 338.77,367.23 342.91,370.02C346.67,372.55 350.68,374.7 354.45,377.23C357.11,379.01 359.59,381.07 362.04,383.12C365.17,385.74 368.25,388.42 371.24,391.19C373.76,393.52 376.2,395.93 378.55,398.44C381.44,401.53 384.3,404.65 386.95,407.94C389.06,410.55 390.85,413.42 392.77,416.18C396.55,421.65 400.54,426.99 402.95,433.28C403.27,434.11 403.7,434.89 404.01,435.72C405.01,438.39 405.95,441.09 407.02,443.73C407.15,444.06 408.01,444.29 408.49,444.22C408.88,444.17 409.49,443.64 409.52,443.28C409.63,442.08 409.6,440.85 409.48,439.64C408.91,433.99 408.38,428.34 407.66,422.71C407.18,418.94 406.65,415.16 405.73,411.48C404.99,408.52 403.58,405.73 402.53,402.84C401.5,400.01 400.37,397.24 397.35,396C396.58,395.69 395.3,395.65 394.74,396.09C394.2,396.52 393.96,397.82 394.16,398.59C395.38,403.16 396.75,407.69 398.07,412.24ZM329.68,496.17C329.17,495.44 328.43,494.31 327.61,493.24C326.48,491.77 325.13,490.44 324.14,488.89C323.08,487.24 322.26,485.42 321.47,483.62C321.11,482.8 321.02,481.86 320.89,480.96C320.73,479.88 320.73,478.77 320.53,477.69C320.35,476.73 319.83,475.81 319.77,474.85C319.6,471.75 318.35,470.11 315.39,469.63C314.66,469.51 313.32,469.64 313.18,470.01C312.88,470.81 312.94,471.91 313.26,472.74C313.69,473.85 314.77,474.73 315.1,475.85C316.98,482.21 318.77,488.59 320.47,495C320.64,495.63 320.14,496.55 319.73,497.19C318.9,498.51 317.75,499.64 317.04,501.01C315.17,504.61 313.59,508.36 311.67,511.94C309.81,515.41 307.78,518.79 305.67,522.11C299.47,531.88 293.59,541.85 285.88,550.6C283.93,552.81 281.86,553.63 279.17,553.77C276.48,553.91 273.77,553.96 271.12,554.39C269.04,554.73 267.05,556.03 264.99,556.1C260.48,556.24 255.96,555.81 251.44,555.74C250.83,555.73 249.86,556.34 249.65,556.89C248.91,558.84 250.63,558.84 251.77,559.1C255.72,560 259.7,560.81 263.65,561.7C263.9,561.76 264.25,562.5 264.24,562.51C261.74,564.38 259.2,566.19 256.69,568.05C256.2,568.41 255.84,568.95 255.43,569.4C255.96,569.58 256.53,570.01 257,569.91C259.01,569.49 260.99,568.93 262.97,568.38C268.04,566.99 273.12,565.61 278.17,564.16C281.85,563.1 285.49,561.87 289.18,560.86C289.75,560.7 290.79,561.17 291.19,561.68C292.11,562.88 292.7,564.33 293.56,565.58C295.07,567.75 296.64,569.88 298.29,571.95C298.6,572.34 299.39,572.36 299.95,572.56C299.97,572.19 300.15,571.7 299.98,571.48C297.38,568.09 296.99,563.37 293.42,560.56C293.17,560.36 293.01,559.95 292.96,559.62C292.66,557.63 292.35,555.65 292.14,553.65C292.01,552.46 291.65,551.08 292.09,550.08C293.35,547.17 294.87,544.35 296.45,541.59C298.69,537.7 301.01,533.85 303.41,530.06C306.05,525.88 308.82,521.77 311.52,517.63C313.16,515.11 314.81,512.58 316.41,510.03C318.46,506.75 321.03,504.22 324.96,503.24C326.45,502.87 328.42,502.82 328.87,500.71C329.13,499.43 329.33,498.14 329.68,496.17ZM372.53,556.89C372.54,559.51 371.35,559.4 369.47,558.79C365.08,557.37 360.64,556.14 356.23,554.78C354.07,554.11 352.11,553.23 350.86,551.07C349.75,549.15 348.29,547.41 346.86,545.7C346.51,545.27 345.68,545.24 345.07,545.03C345.19,545.69 345.17,546.43 345.47,547C346.04,548.06 346.88,548.97 347.43,550.04C347.59,550.34 347.24,551.29 346.95,551.37C344.9,551.98 342.79,552.4 340.73,552.98C340.29,553.11 339.96,553.64 339.58,553.99C339.94,554.34 340.25,554.87 340.68,554.99C341.74,555.28 342.87,555.58 343.95,555.53C348.56,555.31 352.79,556.89 357.08,558.17C360.82,559.28 364.52,560.55 368.24,561.74C371.15,562.67 373.93,563.69 374.44,567.33C374.51,567.86 375.11,568.34 375.51,568.79C376.41,569.81 377.58,570.67 378.21,571.83C380.17,575.43 381.92,579.15 383.79,582.8C383.98,583.17 384.66,583.69 384.8,583.6C385.28,583.32 385.88,582.83 385.94,582.36C386.02,581.7 385.71,580.97 385.47,580.3C383.45,574.68 381.13,569.15 379.46,563.44C377.94,558.25 377.22,552.83 375.98,547.55C374.74,542.26 373.5,536.95 371.89,531.76C370.33,526.73 368.26,521.86 366.56,516.87C366.28,516.05 366.44,514.34 366.91,514.12C368.77,513.23 369.17,511.6 368.89,510.09C368.11,505.92 366.97,501.83 365.99,497.7C365.73,496.59 365.59,495.44 365.25,494.35C364.96,493.42 364.72,492.06 364.04,491.73C361.8,490.64 359.39,489.89 357,489.13C356.56,488.99 355.8,489.3 355.43,489.65C355.2,489.87 355.23,490.74 355.48,491.02C357.53,493.31 359.68,495.51 361.77,497.77C364.65,500.89 365.23,502.73 363.83,504.79C362.79,506.33 361.51,507.71 360.41,509.2C359.95,509.83 359.54,510.54 359.31,511.28C358.31,514.49 358.9,517.19 362.01,519C362.19,519.11 362.38,519.29 362.45,519.49C364.62,525.39 367.2,531.18 368.81,537.23C370.55,543.69 371.34,550.34 372.53,556.89ZM318.35,327.13C318.58,326.99 319.61,326.69 319.74,326.18C319.89,325.59 319.42,324.44 318.89,324.17C317.03,323.22 315.01,322.57 313.08,321.74C311.37,321 309.3,320.53 308.11,319.26C306.77,317.84 306.18,315.68 305.35,313.8C305.08,313.19 305.1,312.46 304.99,311.78C305.6,311.86 306.21,312.01 306.81,312.01C307.38,312.01 307.95,311.85 308.52,311.76C308.41,311.13 308.53,310.25 308.16,309.92C307.18,309.04 306,308.38 304.87,307.67C303.01,306.49 300.96,305.54 299.29,304.14C296.25,301.58 293.47,298.71 290.48,296.07C289.99,295.64 288.96,295.6 288.25,295.73C288.01,295.78 287.66,297.06 287.88,297.51C289.77,301.28 291.75,305.01 293.77,308.71C294.71,310.43 295.91,312.01 296.84,313.73C299.18,318.1 301.37,322.55 303.75,326.9C306.12,331.24 308.68,335.48 311.11,339.79C312.32,341.94 313.32,344.2 314.58,346.32C315.97,348.66 317.21,351.23 319.11,353.09C321.32,355.25 324.16,356.76 326.75,358.52C327.32,358.91 327.96,359.17 328.57,359.49C328.41,358.74 328.31,357.98 328.06,357.26C327.94,356.9 327.56,356.64 327.3,356.33C325.93,354.63 324.25,353.08 323.26,351.18C321.57,347.9 320.28,344.42 318.94,340.98C318.82,340.68 319.48,339.72 319.9,339.63C321.07,339.37 322.34,339.56 323.49,339.27C324.03,339.14 324.82,338.23 324.75,337.81C324.59,336.93 324.11,335.69 323.44,335.42C321.97,334.84 320.28,334.86 318.72,334.46C317.42,334.12 315.8,333.87 315.02,332.97C313.77,331.53 313.08,329.59 312.18,327.85C312.05,327.59 311.92,327.11 312.03,327C312.24,326.82 312.63,326.78 312.95,326.8C314.57,326.87 316.17,326.99 318.35,327.13ZM439.2,491.02C438.8,489.02 437.01,488.9 435.47,488.89C434.91,488.89 434.02,489.75 433.85,490.38C433.52,491.63 433.52,492.99 433.5,494.3C433.48,495.5 433.81,496.74 433.61,497.9C433.14,500.58 432.46,503.22 431.85,505.87C431.34,508.06 430.81,510.24 430.26,512.42C429.81,514.21 428.73,514.42 427.38,513.38C425.26,511.74 423.22,510.02 421.13,508.35C420.38,507.75 419.39,507.32 418.87,506.56C416.87,503.71 415.12,500.69 413.04,497.91C412.58,497.29 411.66,497.01 410.8,496.69C410.38,496.53 409.91,496.75 409.74,497.17C409.3,498.24 408.72,499.35 408.95,500.25C409.42,502.07 410.51,503.84 411.71,505.32C414.26,508.47 416.83,511.67 419.83,514.37C422.18,516.49 425.24,517.8 427.88,519.62C429.83,520.97 431.49,522.75 433.49,524C435.89,525.5 436.47,524.89 436.73,522.04C437.07,518.24 435.53,514.34 438.86,510.68C440.67,508.68 439.92,494.61 439.2,491.02ZM389.39,387.24C389.4,387.22 389.4,387.2 389.4,387.18C388.27,383.58 387.32,380 386.02,376.56C384,371.21 381.82,365.92 379.54,360.67C377.51,355.99 375.27,351.4 373.1,346.78C372.27,345.02 371.41,343.28 370.51,341.56C369.34,339.32 368.1,337.11 366.9,334.89C365.87,332.98 364.87,331.06 363.82,329.16C363.11,327.87 361.45,327.4 360.18,328.16C358.66,329.07 358.8,330.51 359.46,331.9C361.45,336.15 363.46,340.4 365.54,344.61C367.62,348.82 369.84,352.96 371.9,357.17C373.76,360.99 375.49,364.88 377.27,368.74C378.93,372.34 380.59,375.93 382.24,379.53C383.57,382.42 384.84,385.34 386.27,388.18C386.54,388.71 387.28,388.99 387.87,389.35C387.98,389.42 388.12,389.38 388.18,389.28C388.56,388.67 388.93,388.03 389.39,387.24ZM257.48,384.89C256.75,386.05 255.98,386.72 255.96,387.4C255.85,391.57 255.82,395.75 255.94,399.92C255.99,401.69 256.68,403.46 256.67,405.23C256.64,410.79 257.84,416.09 260.01,421.14C262.02,425.84 263.73,430.85 268.25,433.9C269.09,434.47 270.53,434.42 271.61,434.22C272.02,434.14 272.64,432.69 272.44,432.13C271.11,428.51 269.43,425.01 268.14,421.38C267.09,418.41 266.15,415.35 265.62,412.26C264.77,407.28 264.64,402.16 263.53,397.25C262.74,393.76 260.87,390.51 259.39,387.19C259.1,386.51 258.42,386 257.48,384.89ZM405.66,490.65C405.7,490.78 410.8,489.8 413.22,488.94C416.31,487.84 419.28,486.36 422.37,485.27C427.32,483.52 431.79,481.15 433.88,476.02C434.33,474.92 433.6,473.34 433.41,471.99C432.42,472.34 431.32,472.51 430.47,473.07C427.27,475.17 424.39,478 420.93,479.44C414.59,482.08 407.95,484.06 401.36,486.07C396.81,487.46 391.87,487.65 387.78,490.43C387.24,490.8 386.81,491.64 386.78,492.28C386.77,492.61 387.76,493.25 388.32,493.27C391.05,493.37 393.82,493.57 396.51,493.24C398.95,492.94 401.32,492.02 403.71,491.35C404.38,491.17 405.01,490.88 405.66,490.65ZM364.51,476.81C364.77,476.6 365.02,476.4 365.28,476.19C365.54,476.72 365.69,477.36 366.08,477.77C367.21,478.97 368.34,480.21 369.65,481.18C371.21,482.34 373.02,481.42 372.69,479.57C372.33,477.57 371.66,475.41 370.47,473.81C368.46,471.1 365.97,468.73 363.61,466.28C361.88,464.49 359.91,462.93 358.28,461.05C356.71,459.24 355.57,457.05 354,455.24C353.4,454.54 352.11,454.44 351.14,454.06C350.79,454.97 349.95,456.03 350.18,456.76C351.23,460.1 352.56,463.35 353.83,466.61C354.35,467.94 354.95,469.25 355.56,470.54C357.46,474.57 359.23,478.69 361.42,482.56C361.97,483.54 363.96,483.7 365.29,484.23C365.41,482.92 365.73,481.59 365.6,480.3C365.49,479.13 364.89,477.98 364.51,476.81ZM320.65,404.69C321.17,409.61 322.91,413.62 324.9,417.56C328.28,424.26 331.65,430.97 335,437.68C335.33,438.35 335.48,439.11 335.79,439.8C336.29,440.94 336.65,442.23 337.45,443.12C338.08,443.82 339.29,443.99 340.25,444.4C340.59,443.37 341.48,442.16 341.2,441.35C338.3,432.83 335.39,424.3 332.1,415.93C330.45,411.73 328.12,407.77 325.85,403.85C325.31,402.91 323.76,402.04 322.73,402.09C321.99,402.11 321.34,403.76 320.65,404.69ZM417.72,498.7C419.48,500.91 421.4,503 423.26,505.14C424.44,506.51 426.67,506.77 427.91,505.54C430.68,502.78 430.13,499.2 430.14,495.78C430.14,493.95 428.86,492.99 427.51,492.05C425.21,490.46 424.69,490.6 423.45,493.1C423.3,493.39 422.48,493.51 422.01,493.45C420.78,493.3 419.45,492.6 418.37,492.9C417.5,493.14 417.09,497.91 417.72,498.7ZM398.04,501.08C398.94,506.46 401.71,510.7 406.05,513.9C406.67,514.36 408.02,514.59 408.55,514.23C409.16,513.81 409.52,512.59 409.45,511.76C409.37,510.75 408.83,509.73 408.31,508.82C406.84,506.24 405.2,503.74 403.77,501.14C402.61,499.04 400.81,497.74 399.52,495.73C399.11,495.09 397.73,499.27 398.04,501.08ZM447.55,516.6C447.3,514.14 447.04,511.11 446.63,508.1C446.56,507.62 445.83,507.11 445.29,506.87C445.02,506.75 444.26,507.08 444.11,507.39C443.22,509.23 442.08,511.06 441.7,513.03C440.9,517.14 440.45,521.33 440.02,525.5C439.94,526.31 440.34,527.43 440.93,527.96C441.27,528.27 442.63,527.92 443.17,527.45C446.27,524.77 447.25,521.13 447.55,516.6ZM419.64,523.33C421.89,527 424.63,530.21 428.61,532.11C429.9,532.72 431.58,533.25 432.23,531.7C432.65,530.71 432.25,528.81 431.49,528C429.53,525.91 427.21,524.15 424.95,522.37C424.04,521.66 418.9,522.13 419.64,523.33ZM262.23,216.72C259.76,216.41 258.62,219.49 258.38,221.84C258.19,223.77 261.13,226.11 263.45,226.11C266.84,226.12 268.59,224.59 268.53,221.67C268.48,219.57 264.85,216.71 262.23,216.72ZM415.41,474.76C415.4,474.83 415.42,474.91 415.47,474.96C416.08,475.52 419.21,476.11 419.38,475.34C420.27,471.42 421.54,467.4 419.7,463.43C419.39,462.77 418.31,462.18 417.54,462.13C417.12,462.1 416.29,463.24 416.22,463.91C415.87,467.31 415.69,470.74 415.41,474.76ZM406.34,377.32C406.24,377.07 406.18,376.19 405.74,375.89C404.21,374.85 402.6,373.9 400.91,373.17C400.28,372.9 398.91,373.06 398.66,373.48C398.24,374.19 398.03,375.73 398.46,376.12C399.97,377.51 401.7,378.71 403.5,379.7C405.11,380.59 406.34,379.63 406.34,377.32ZM405.07,383.33C405.07,385.53 408.44,388.17 410.07,387.55C410.71,387.31 411.56,386.54 411.58,385.99C411.6,385.43 410.81,384.63 410.19,384.32C408.95,383.72 407.6,383.33 406.27,382.98C405.87,382.9 405.35,383.22 405.07,383.33Z" style="fill-rule:nonzero;"/>
            <path d="M236.75,382.34C237.51,390.04 236.56,398.03 239.95,405.36C241.39,408.47 242.96,411.52 244.38,414.64C245.1,416.23 245.73,417.87 246.2,419.55C246.34,420.05 245.79,420.75 245.56,421.36C244.46,420.91 242.84,420.77 242.34,419.95C239.81,415.82 237.58,411.5 235.24,407.25C235.17,407.11 235.12,406.97 235.09,406.81C234.06,400.14 232.91,393.52 233.02,386.67C233.11,380.77 231.92,374.85 231.34,368.94C231.01,365.65 230.77,362.34 230.45,359.05C230.42,358.72 230.17,358.41 230.02,358.1C229.87,358.38 229.63,358.65 229.57,358.95C228.29,365.44 227.44,372.05 225.63,378.38C224.07,383.81 227.02,387.99 228.17,392.69C228.91,395.72 228.05,398.37 226.41,400.79C225.62,401.96 223.76,401.05 222.84,399.22C222.19,397.92 221.29,396.74 220.68,395.42C220.19,394.37 220.01,393.18 219.62,392.07C218.79,389.69 217.8,387.36 217.09,384.95C216.28,382.18 215.44,379.38 215.09,376.53C214.5,371.73 214.12,366.89 213.94,362.05C213.77,357.47 214.07,352.87 213.99,348.28C213.89,342.32 213.92,336.33 213.33,330.4C212.98,326.94 214.05,324.09 215.32,321.14C217.04,317.12 218.53,312.98 220.58,309.13C221.88,306.68 223.97,304.63 225.78,302.46C227.98,299.83 230.12,297.13 232.53,294.71C234.33,292.9 236.5,291.46 238.53,289.89C240.4,288.45 242.11,286.55 244.23,285.77C246.25,285.02 248.75,285.66 250.97,285.29C254.01,284.78 257.01,283.93 260,283.15C261.77,282.69 263.52,282.12 265.26,281.54C265.67,281.41 265.53,280.5 265.09,280.4C264.83,280.34 264.54,280.44 264.28,280.38C263.23,280.14 262.19,279.87 261.14,279.61C261.7,278.37 262.23,277.12 262.82,275.91C263.07,275.39 262.72,274.13 262.26,273.86C261.9,273.64 261.33,273.07 261.39,272.97C261.94,272.01 262.44,270.57 263.28,270.31C267.11,269.09 271.04,268.18 274.94,267.22C276.06,266.94 277.25,266.94 278.36,266.63C278.73,266.53 278.98,265.9 279.24,265.48C278.89,265.25 278.39,264.75 278,264.74C276.08,264.69 274.18,265.3 272.27,265.33C271.55,265.34 270.81,264.66 270.08,264.27C270.04,264.25 270.03,264.21 270.06,264.17C270.61,263.36 271.01,262.22 271.77,261.87C274.31,260.7 277.08,260.01 279.57,258.76C280.54,258.28 281,256.79 281.7,255.77C282,255.33 282.32,254.91 282.63,254.48C282.68,254.4 282.79,254.39 282.86,254.45C283.36,254.83 283.92,255.16 284.29,255.64C286.69,258.71 286.72,262.25 286.18,265.88C286.16,266.01 286.11,266.19 286.17,266.28C287.89,269.04 285.66,271.36 285.36,273.89C284.9,277.79 284.5,281.7 284.3,285.62C284.2,287.5 283.23,287.97 281.68,288.58C277.51,290.21 273.49,292.25 269.58,294.4C267.92,295.32 266.35,296.39 264.78,297.45C263.92,298.03 262.95,298.47 262.14,299.11C260.15,300.68 257.99,302.11 256.3,303.97C253.95,306.56 251.9,309.44 249.83,312.27C247.73,315.15 245.13,317.89 243.88,321.12C242.1,325.7 241.26,330.66 240.17,335.49C239.12,340.15 238.25,344.86 237.33,349.54C237.24,350.02 237.16,350.79 237.16,351.28C237.15,355.91 236.19,376.7 236.75,382.34Z" style="fill:white;fill-rule:nonzero;"/>
            <path d="M298.89,283.63C295.59,284.05 293.42,279.71 293.55,276.67C293.74,272.19 293.91,267.71 294.15,263.24C294.33,259.83 294.98,256.39 294.76,253.01C294.51,249.19 293.83,245.32 292.68,241.69C292.36,240.68 289.54,239.71 288.1,239.98C284.86,240.58 281.76,241.97 278.6,243.02C274.75,244.3 270.91,245.59 267.04,246.81C263.99,247.77 260.72,248.24 257.89,249.62C253.5,251.76 249.41,254.52 245.18,256.97C244.33,257.46 243.36,258.13 242.47,258.09C236.99,257.85 233.38,261.78 229.1,264.08C224.84,266.37 220.88,269.23 216.85,271.92C213.24,274.33 209.71,276.87 206.12,279.31C203.57,281.05 200.89,282.61 198.44,284.46C193.73,288.02 189.16,291.77 184.5,295.39C179.94,298.94 175.29,302.38 170.77,305.98C166.19,309.63 161.77,313.48 157.18,317.11C152.14,321.09 147,324.95 141.87,328.81C135.67,333.46 129.44,338.06 123.21,342.68C119.82,345.19 116.43,347.7 113.02,350.19C112.69,350.43 112.23,350.48 111.83,350.62C111.89,350.25 111.84,349.8 112.03,349.52C114.16,346.45 116.13,343.24 118.53,340.39C122.41,335.79 126.42,331.27 130.65,326.99C136.45,321.13 142.43,315.45 148.47,309.84C152.95,305.67 157.63,301.7 162.25,297.68C166.05,294.38 169.96,291.18 173.73,287.84C179.34,282.88 184.85,277.79 190.47,272.83C192.19,271.32 194.13,270.06 195.97,268.69C198.06,267.14 200.11,265.54 202.26,264.08C204.43,262.61 206.71,261.3 208.92,259.88C209.7,259.38 210.45,258.82 211.16,258.22C213.38,256.33 216.03,255.96 218.73,256.35C222.28,256.86 224.11,254.11 226.55,252.55C230.88,249.77 234.91,246.39 239.52,244.25C242.99,242.64 246.32,241.09 249.17,238.52C251.46,236.45 254.34,237.31 256.73,237.92C263.16,239.56 268.87,239.54 274.19,234.66C276.48,232.56 277,229.73 278.83,227.58C282.97,222.73 289.62,221.76 295.3,225.16C298.88,227.31 300.92,230.51 303.44,233.46C305.16,235.46 305.45,237.64 305.16,240.21C304.74,243.97 304.71,247.78 304.54,251.57C304.26,257.61 304.06,263.65 303.69,269.68C303.46,273.44 303.14,277.22 302.53,280.93C302.19,283.18 301.21,283.64 298.89,283.63Z" style="fill:white;fill-rule:nonzero;"/>
            <path d="M269.04,209.78C268.54,209.67 268.03,209.66 267.53,209.74C261.91,210.7 256.71,211.83 253.27,216.54C252.18,218.02 251.67,219.92 250.84,221.6C248.45,226.45 244.28,229.07 239.23,230.22C237.14,230.7 235.56,231.38 234.15,233.06C232.49,235.03 230.47,236.71 228.5,238.4C228.15,238.7 227.39,238.63 226.77,238.55C226.68,238.54 226.61,238.46 226.61,238.36C226.61,237.59 226.62,236.74 226.97,236.15C229.17,232.45 231.38,228.75 233.78,225.18C236.62,220.96 239.54,216.8 242.63,212.77C244.69,210.09 247.01,207.59 249.41,205.2C250.44,204.18 251.95,203.62 253.26,202.9C255.18,201.84 257.05,200.65 259.07,199.84C262.35,198.51 265.74,197.46 269.06,196.25C269.72,196.01 270.29,195.48 270.95,195.26C271.76,194.98 272.66,194.94 273.51,194.79C274.15,194.68 274.79,194.57 275.44,194.53C277.57,194.39 279.8,193.71 281.86,194.03C283.9,194.35 285.78,195.54 287.77,196.25C292.08,197.79 295.46,200.58 298.52,203.88C299.97,205.45 301.77,206.69 303.21,208.27C304.68,209.87 305.92,211.67 307.21,213.42C307.31,213.55 307.12,214.12 306.93,214.21C306.33,214.5 305.49,215.02 305.07,214.81C301.6,213.08 298.23,211.14 294.76,209.38C293.88,208.93 292.92,208.67 291.93,208.59C288.92,208.34 285.87,208 282.87,208.24C281.09,208.38 279.45,209.75 277.65,210.19C276.06,210.57 274.34,210.58 272.69,210.47C271.42,210.34 270.14,210.03 269.04,209.78Z" style="fill:white;fill-rule:nonzero;"/>
            <path d="M332.4,467.81C332.13,468.48 331.85,469.14 331.58,469.81C331.01,469.32 330.27,468.93 329.88,468.31C326.68,463.24 323.81,457.93 320.31,453.08C316.11,447.27 311.45,441.79 306.88,436.26C301.72,430.01 296.14,424 294.3,415.77C293.29,411.25 292.42,406.67 291.97,402.07C291.28,394.95 291.55,387.7 290.36,380.69C289.54,375.83 287.1,371.2 285.1,366.6C282.05,359.59 278.82,352.65 275.54,345.74C274.14,342.8 272.41,340.02 270.85,337.15C270.58,336.65 270.44,336.07 270.22,335.53C268.89,332.24 269.45,331.25 273.09,331.14C273.85,331.12 274.92,332.04 275.39,332.8C277.77,336.73 279.99,340.75 282.27,344.74C283.8,347.42 285.43,350.04 286.84,352.78C288.84,356.67 290.89,360.56 292.52,364.61C294.39,369.28 296.01,374.06 297.36,378.91C298.03,381.32 297.84,383.97 298.01,386.52C298.28,390.47 298.51,394.43 298.79,398.38C298.98,401.13 299.17,403.88 299.42,406.62C299.68,409.38 299.9,412.15 300.33,414.88C301.06,419.59 304,423.15 306.71,426.85C309.29,430.38 311.65,434.06 314.24,437.58C316.33,440.43 318.86,442.99 320.75,445.96C323.62,450.46 326.11,455.2 328.75,459.85C329.72,461.55 330.69,463.26 331.55,465.02C331.95,465.82 332.09,466.77 332.4,467.81Z" style="fill:white;fill-rule:nonzero;"/>
            <path d="M398.34,412.37C397.02,407.82 395.65,403.29 394.45,398.71C394.25,397.94 394.49,396.64 395.03,396.21C395.59,395.77 396.87,395.81 397.64,396.12C400.66,397.36 401.79,400.13 402.82,402.96C403.87,405.85 405.27,408.64 406.02,411.6C406.94,415.27 407.47,419.06 407.95,422.83C408.66,428.46 409.2,434.11 409.77,439.76C409.89,440.97 409.92,442.2 409.81,443.4C409.78,443.76 409.18,444.29 408.78,444.34C408.3,444.4 407.44,444.18 407.31,443.85C406.23,441.21 405.3,438.51 404.3,435.84C403.99,435.01 403.56,434.23 403.24,433.4C400.82,427.12 396.84,421.77 393.06,416.3C391.15,413.53 389.35,410.67 387.24,408.06C384.59,404.78 381.73,401.65 378.84,398.56C376.5,396.06 374.05,393.64 371.53,391.31C368.53,388.54 365.46,385.86 362.33,383.24C359.87,381.18 357.39,379.13 354.74,377.35C350.98,374.83 346.96,372.68 343.2,370.14C339.06,367.35 335.09,364.3 331.06,361.35C330.92,361.24 330.87,361 330.78,360.82C331.03,360.79 331.32,360.66 331.52,360.74C335.46,362.27 339.39,363.84 343.34,365.37C346.34,366.53 349.35,367.66 352.36,368.79C358.15,370.96 363.07,374.54 367.72,378.49C371.42,381.63 374.99,384.95 378.43,388.37C381.84,391.77 385.22,395.24 388.25,398.98C391.56,403.05 394.45,407.46 397.53,411.72C397.74,412.01 397.94,412.3 398.15,412.59C398.2,412.52 398.27,412.44 398.34,412.37Z" style="fill:white;fill-rule:nonzero;"/>
            <path d="M329.95,496.3C329.6,498.27 329.41,499.56 329.14,500.83C328.69,502.94 326.72,502.99 325.23,503.36C321.3,504.34 318.73,506.86 316.68,510.15C315.09,512.71 313.44,515.23 311.79,517.75C309.09,521.9 306.32,526 303.68,530.18C301.28,533.98 298.96,537.82 296.72,541.71C295.14,544.47 293.62,547.28 292.36,550.2C291.93,551.2 292.29,552.58 292.41,553.77C292.62,555.77 297.65,568.21 300.25,571.6C300.42,571.82 300.24,572.31 300.22,572.68C299.65,572.49 298.87,572.47 298.56,572.07C296.91,570 295.34,567.87 293.83,565.7C292.96,564.45 292.38,562.99 291.46,561.8C291.07,561.29 290.02,560.82 289.45,560.98C285.75,561.98 282.12,563.22 278.44,564.28C273.39,565.73 268.31,567.11 263.24,568.5C261.26,569.04 259.28,569.6 257.27,570.03C256.8,570.13 256.23,569.7 255.7,569.52C256.12,569.07 256.48,568.53 256.96,568.17C259.47,566.31 262.01,564.5 264.51,562.63C264.52,562.62 264.18,561.88 263.92,561.82C259.96,560.92 255.99,560.12 252.04,559.22C250.9,558.96 249.19,558.96 249.92,557.01C250.13,556.46 251.1,555.85 251.71,555.86C256.23,555.93 260.75,556.35 265.26,556.22C267.32,556.16 269.3,554.85 271.39,554.51C274.04,554.08 276.75,554.02 279.44,553.89C282.13,553.75 284.2,552.93 286.15,550.72C293.86,541.97 299.74,532 305.94,522.23C308.05,518.91 310.09,515.53 311.94,512.06C313.85,508.48 315.44,504.74 317.31,501.13C318.02,499.76 319.17,498.63 320,497.31C320.41,496.66 320.9,495.75 320.74,495.12C319.04,488.71 317.26,482.32 315.37,475.97C315.04,474.85 313.96,473.97 313.53,472.86C313.21,472.04 313.14,470.93 313.45,470.13C313.59,469.76 314.92,469.63 315.66,469.75C318.62,470.23 319.87,471.87 320.04,474.97C320.09,475.93 320.62,476.85 320.8,477.81C321,478.89 321,479.99 321.16,481.08C321.29,481.98 321.38,482.93 321.74,483.74C322.53,485.54 323.35,487.36 324.41,489.01C325.4,490.56 326.74,491.89 327.88,493.36C328.71,494.43 329.44,495.56 329.95,496.3Z" style="fill:white;fill-rule:nonzero;"/>
            <path d="M372.81,557.01C371.62,550.46 370.83,543.81 369.12,537.4C367.51,531.35 364.93,525.56 362.76,519.66C362.69,519.47 362.5,519.28 362.32,519.17C359.21,517.37 358.62,514.67 359.62,511.45C359.85,510.71 360.26,509.99 360.72,509.37C361.82,507.87 363.1,506.5 364.14,504.96C365.54,502.89 364.96,501.05 362.08,497.94C359.99,495.68 357.84,493.48 355.79,491.19C355.54,490.91 355.51,490.04 355.74,489.82C356.11,489.46 356.86,489.16 357.31,489.3C359.7,490.06 362.11,490.81 364.35,491.9C365.02,492.23 365.27,493.58 365.56,494.52C365.89,495.61 366.03,496.76 366.3,497.87C367.28,502 368.42,506.1 369.2,510.26C369.48,511.77 369.09,513.4 367.22,514.29C366.75,514.51 366.59,516.22 366.87,517.04C368.57,522.03 370.64,526.9 372.2,531.93C373.8,537.12 375.05,542.43 376.29,547.72C377.53,553 378.25,558.42 379.77,563.61C381.44,569.33 383.76,574.86 385.78,580.47C386.02,581.14 386.33,581.87 386.25,582.53C386.19,583 385.59,583.48 385.11,583.77C384.97,583.85 384.29,583.33 384.1,582.97C382.22,579.32 380.48,575.6 378.52,572C377.89,570.84 376.72,569.98 375.82,568.95C375.42,568.49 374.82,568.02 374.75,567.49C374.24,563.85 371.45,562.83 368.55,561.9C364.83,560.71 361.13,559.44 357.39,558.33C353.1,557.05 348.87,555.48 344.26,555.69C343.18,555.74 342.05,555.44 340.99,555.15C340.56,555.03 340.25,554.5 339.89,554.15C340.27,553.8 340.6,553.26 341.04,553.14C343.1,552.56 345.21,552.14 347.26,551.53C347.55,551.45 347.89,550.5 347.74,550.2C347.19,549.13 346.35,548.22 345.78,547.16C345.48,546.59 345.5,545.85 345.38,545.19C345.99,545.4 346.82,545.43 347.17,545.86C348.6,547.57 350.06,549.31 351.17,551.23C352.42,553.39 354.38,554.27 356.54,554.94C360.95,556.3 365.39,557.53 369.78,558.95C371.63,559.52 372.82,559.63 372.81,557.01Z" style="fill:white;fill-rule:nonzero;"/>
            <path d="M318.62,327.26C316.44,327.11 314.84,326.99 313.24,326.91C312.93,326.89 312.53,326.93 312.32,327.11C312.2,327.21 312.33,327.7 312.47,327.96C313.37,329.7 314.05,331.64 315.31,333.08C316.09,333.98 317.72,334.23 319.01,334.57C320.57,334.97 322.26,334.95 323.73,335.53C324.41,335.8 324.88,337.04 325.04,337.92C325.12,338.34 324.32,339.25 323.78,339.38C322.63,339.67 321.36,339.48 320.19,339.74C319.77,339.83 319.11,340.79 319.23,341.09C320.57,344.53 321.86,348.02 323.55,351.29C324.53,353.2 326.21,354.74 327.59,356.44C327.84,356.75 328.23,357.02 328.35,357.37C328.59,358.09 328.7,358.85 328.86,359.6C328.25,359.28 327.6,359.02 327.04,358.63C324.45,356.87 321.6,355.36 319.4,353.2C317.5,351.34 316.26,348.77 314.87,346.43C313.62,344.31 312.61,342.05 311.4,339.9C308.97,335.59 306.42,331.35 304.04,327.01C301.66,322.66 299.47,318.21 297.13,313.84C296.2,312.11 295.01,310.54 294.06,308.82C292.03,305.12 290.05,301.39 288.17,297.62C287.94,297.17 288.29,295.88 288.54,295.84C289.25,295.71 290.27,295.74 290.77,296.18C293.76,298.81 296.54,301.68 299.58,304.25C301.25,305.66 303.29,306.61 305.16,307.78C306.28,308.49 307.46,309.15 308.45,310.03C308.82,310.36 308.7,311.24 308.81,311.87C308.24,311.96 307.67,312.12 307.1,312.12C306.49,312.12 305.88,311.97 305.28,311.89C305.39,312.57 305.37,313.3 305.64,313.91C306.47,315.79 307.06,317.95 308.4,319.37C309.6,320.64 311.66,321.11 313.37,321.85C315.3,322.69 317.32,323.33 319.18,324.28C319.71,324.55 320.18,325.7 320.03,326.29C319.88,326.82 318.86,327.12 318.62,327.26Z" style="fill:white;fill-rule:nonzero;"/>
            <path d="M441.31,501.34C441.41,501.93 441.42,502.54 441.31,503.12C440.81,505.72 440.77,508.99 439.12,510.81C435.79,514.47 437.33,518.37 436.99,522.17C436.73,525.02 436.15,525.62 433.75,524.13C431.75,522.88 430.09,521.1 428.14,519.75C425.5,517.93 422.44,516.62 420.09,514.5C417.09,511.8 414.52,508.6 411.97,505.45C410.77,503.97 409.68,502.19 409.21,500.38C408.92,499.26 412.7,497.24 413.3,498.05C415.38,500.83 417.13,503.86 419.13,506.7C419.66,507.45 420.64,507.88 421.39,508.49C423.48,510.16 425.52,511.89 427.64,513.52C428.99,514.56 430.07,514.35 430.52,512.56C431.07,510.38 431.6,508.2 432.11,506.01C432.73,503.36 433.41,500.72 433.87,498.04C434.07,496.88 433.74,495.64 433.76,494.44C433.79,493.12 433.78,491.77 434.11,490.52C434.28,489.9 435.17,489.03 435.73,489.03C437.27,489.04 439.06,489.16 439.46,491.16C440.14,494.44 440.68,497.75 441.31,501.34Z" style="fill:white;fill-rule:nonzero;"/>
            <path d="M389.67,387.37C389.22,388.14 388.85,388.77 388.49,389.38C388.41,389.51 388.24,389.55 388.11,389.47C387.52,389.12 386.81,388.84 386.55,388.33C385.12,385.49 383.85,382.57 382.52,379.68C380.86,376.08 379.21,372.49 377.55,368.89C375.77,365.03 374.05,361.14 372.18,357.32C370.12,353.1 367.9,348.96 365.82,344.76C363.74,340.55 361.74,336.3 359.74,332.05C359.09,330.66 358.94,329.23 360.46,328.32C361.73,327.56 363.39,328.03 364.1,329.32C365.14,331.22 366.15,333.14 367.18,335.04C368.38,337.26 369.61,339.47 370.79,341.71C371.69,343.43 372.56,345.17 373.38,346.93C375.55,351.55 377.79,356.14 379.82,360.82C382.1,366.07 384.27,371.36 386.3,376.71C387.6,380.16 388.55,383.74 389.68,387.34C389.68,387.33 389.68,387.35 389.67,387.37Z" style="fill:white;fill-rule:nonzero;"/>
            <path d="M257.75,385.01C258.69,386.12 259.37,386.63 259.67,387.32C261.14,390.64 263.02,393.89 263.81,397.38C264.92,402.29 265.04,407.41 265.9,412.39C266.43,415.49 267.36,418.54 268.42,421.51C269.71,425.14 271.38,428.64 272.72,432.26C272.93,432.82 272.31,434.27 271.89,434.35C270.81,434.55 269.37,434.6 268.53,434.03C264.01,430.98 262.3,425.97 260.29,421.27C258.13,416.22 256.92,410.92 256.95,405.36C256.96,403.59 256.27,401.83 256.22,400.05C256.11,395.88 256.13,391.7 256.24,387.53C256.26,386.84 257.03,386.17 257.75,385.01Z" style="fill:white;fill-rule:nonzero;"/>
            <path d="M404,491.66C401.61,492.33 399.24,493.07 396.8,493.37C394.11,493.7 391.34,493.5 388.61,493.4C388.05,493.38 387.05,492.73 387.07,492.41C387.09,491.77 387.53,490.92 388.07,490.56C392.16,487.78 397.1,487.59 401.65,486.2C408.24,484.19 414.87,482.21 421.22,479.57C424.68,478.13 427.55,475.3 430.76,473.2C431.61,472.64 432.71,472.47 433.7,472.12C433.89,473.48 434.62,475.05 434.17,476.15C432.08,481.28 427.61,483.65 422.66,485.4C419.56,486.5 416.6,487.97 413.51,489.07C411.07,489.92 404.66,491.47 404,491.66Z" style="fill:white;fill-rule:nonzero;"/>
            <path d="M364.78,476.94C365.16,478.11 365.76,479.26 365.88,480.45C366.01,481.74 365.69,483.07 365.57,484.38C364.24,483.84 362.26,483.68 361.7,482.71C359.5,478.84 357.74,474.73 355.84,470.69C355.23,469.4 354.63,468.09 354.11,466.76C352.84,463.49 351.51,460.24 350.46,456.91C350.23,456.18 351.07,455.12 351.42,454.21C352.39,454.58 353.67,454.69 354.28,455.39C355.85,457.2 356.99,459.38 358.56,461.2C360.18,463.07 362.16,464.64 363.89,466.43C366.25,468.87 368.74,471.24 370.75,473.96C371.94,475.56 372.61,477.72 372.97,479.72C373.31,481.58 371.49,482.49 369.93,481.33C368.62,480.35 367.49,479.11 366.36,477.92C365.97,477.51 365.82,476.87 365.56,476.34C365.3,476.52 365.04,476.73 364.78,476.94Z" style="fill:white;fill-rule:nonzero;"/>
            <path d="M320.93,404.81C321.62,403.88 322.27,402.24 323.01,402.2C324.04,402.15 325.59,403.03 326.13,403.96C328.4,407.89 330.73,411.84 332.38,416.04C335.67,424.41 338.58,432.94 341.48,441.46C341.76,442.28 340.87,443.49 340.53,444.51C339.58,444.1 338.37,443.93 337.73,443.23C336.93,442.35 336.57,441.05 336.07,439.91C335.77,439.22 335.62,438.46 335.28,437.79C331.93,431.08 328.56,424.37 325.18,417.67C323.19,413.74 321.44,409.73 320.93,404.81Z" style="fill:white;fill-rule:nonzero;"/>
            <path d="M416.7,496.01C416.59,495.74 416.61,495.44 416.77,495.2C417.36,494.32 417.87,493.24 418.62,493.03C419.7,492.73 421.02,493.43 422.26,493.58C422.74,493.64 423.56,493.52 423.7,493.23C424.94,490.72 425.46,490.58 427.76,492.18C429.11,493.12 430.4,494.09 430.39,495.91C430.39,499.33 430.94,502.91 428.16,505.67C426.92,506.9 424.7,506.63 423.51,505.27C421.66,503.13 419.73,501.04 417.97,498.83C417.43,498.12 417.18,497.18 416.7,496.01Z" style="fill:white;fill-rule:nonzero;"/>
            <path d="M397.42,495.86C397.39,495.66 397.4,495.45 397.47,495.26C397.63,494.76 400.39,494.21 400.79,494.85C402.07,496.86 402.88,499.16 404.04,501.26C405.47,503.86 407.11,506.36 408.58,508.94C409.1,509.85 409.63,510.87 409.72,511.88C409.79,512.71 409.43,513.93 408.82,514.35C408.29,514.71 406.94,514.48 406.32,514.02C401.99,510.82 399.21,506.58 398.31,501.2C398.03,499.49 397.74,497.78 397.42,495.86Z" style="fill:white;fill-rule:nonzero;"/>
            <path d="M447.83,516.72C447.53,521.25 446.55,524.89 443.44,527.58C442.9,528.05 441.54,528.39 441.2,528.09C440.61,527.56 440.21,526.44 440.29,525.63C440.73,521.46 441.17,517.27 441.97,513.16C442.35,511.2 443.49,509.37 444.38,507.52C444.53,507.21 445.28,506.88 445.56,507C446.1,507.24 446.83,507.75 446.9,508.23C447.32,511.23 447.58,514.27 447.83,516.72Z" style="fill:white;fill-rule:nonzero;"/>
            <path d="M422.45,521.15C422.62,521.15 422.8,521.18 422.95,521.26C423.48,521.5 424.44,521.89 425.22,522.5C427.49,524.28 429.81,526.04 431.76,528.13C432.52,528.94 432.91,530.84 432.5,531.83C431.85,533.38 430.17,532.85 428.88,532.24C424.89,530.34 422.15,527.13 419.91,523.46C419.2,522.3 420.15,521.2 422.45,521.15Z" style="fill:white;fill-rule:nonzero;"/>
            <path d="M262.51,216.84C265.13,216.83 268.76,219.69 268.81,221.79C268.88,224.71 267.12,226.24 263.73,226.23C261.41,226.22 258.47,223.89 258.66,221.96C258.9,219.61 260.04,216.53 262.51,216.84Z" style="fill:white;fill-rule:nonzero;"/>
            <path d="M415.74,475.11C415.7,475.04 415.68,474.95 415.68,474.87C415.96,470.86 416.14,467.44 416.5,464.04C416.57,463.37 417.4,462.24 417.82,462.26C418.59,462.31 419.67,462.9 419.98,463.56C421.82,467.53 420.55,471.55 419.66,475.47C419.5,476.16 418.41,476.63 417.55,477.16C417.32,477.3 417.01,477.23 416.87,476.99C416.44,476.28 416.03,475.59 415.74,475.11Z" style="fill:white;fill-rule:nonzero;"/>
            <path d="M406.62,377.45C406.62,379.76 405.39,380.72 403.78,379.83C401.98,378.83 400.24,377.64 398.74,376.25C398.31,375.85 398.52,374.32 398.94,373.61C399.19,373.19 400.56,373.03 401.19,373.3C402.88,374.03 404.49,374.99 406.02,376.02C406.46,376.32 406.52,377.2 406.62,377.45Z" style="fill:white;fill-rule:nonzero;"/>
            <path d="M405.35,383.46C405.65,383.37 406.15,383.02 406.54,383.12C407.88,383.47 409.23,383.86 410.46,384.46C411.08,384.76 411.87,385.57 411.85,386.13C411.83,386.68 410.99,387.44 410.34,387.69C408.72,388.3 405.34,385.75 405.35,383.46Z" style="fill:white;fill-rule:nonzero;"/>
        </g>
    </g>
</svg>
